<?xml version="1.0" standalone="no"?>
<!DOCTYPE svg PUBLIC "-//W3C//DTD SVG 20010904//EN"
 "http://www.w3.org/TR/2001/REC-SVG-20010904/DTD/svg10.dtd">
<svg version="1.0" xmlns="http://www.w3.org/2000/svg"
 width="500.000000pt" height="500.000000pt" viewBox="0 0 500.000000 500.000000"
 preserveAspectRatio="xMidYMid meet">
<metadata>
Created by potrace 1.11, written by Peter Selinger 2001-2013
</metadata>
<g transform="translate(0.000000,500.000000) scale(0.100000,-0.100000)"
fill="#000000" stroke="none">
<path d="M2417 4925 c-1 -1 -47 -5 -102 -9 -55 -3 -109 -8 -120 -10 -11 -2
-41 -6 -66 -10 -77 -11 -100 -16 -219 -46 -174 -43 -273 -80 -465 -170 -222
-104 -448 -264 -633 -448 -136 -136 -147 -148 -247 -283 -111 -149 -220 -340
-290 -510 -71 -171 -142 -433 -160 -594 -4 -33 -9 -73 -12 -90 -8 -60 -10
-362 -3 -438 45 -437 169 -787 405 -1142 288 -434 732 -772 1235 -938 162 -54
281 -82 306 -73 8 3 13 2 10 -3 -8 -13 138 -35 236 -36 27 0 48 -3 48 -7 0
-11 23 -5 32 7 5 6 8 5 8 -2 0 -7 9 -13 21 -13 13 0 18 4 13 13 -6 9 -4 9 7 0
14 -14 190 -19 203 -6 11 12 37 12 30 1 -4 -6 -3 -9 2 -5 5 3 41 8 81 11 39 4
92 10 117 15 25 4 48 6 51 3 3 -3 5 0 5 7 0 7 4 10 9 6 11 -6 203 33 211 44 3
3 11 6 18 7 6 1 21 2 33 2 11 1 18 5 16 10 -3 4 9 8 26 9 18 2 33 7 35 12 2 6
10 7 18 4 8 -3 14 0 14 7 0 6 4 9 9 5 5 -3 31 3 57 13 26 11 43 21 38 24 -5 3
-3 3 3 2 19 -5 74 21 66 31 -5 4 -3 5 4 2 16 -10 44 3 36 16 -3 5 -1 7 5 4 15
-10 43 3 35 16 -3 5 -1 7 5 3 16 -10 64 12 56 26 -4 6 -3 8 4 5 15 -10 43 3
35 16 -3 5 -1 7 4 4 14 -9 75 22 68 34 -4 5 1 6 9 3 9 -3 19 3 26 16 6 11 15
18 20 15 13 -8 52 20 42 29 -4 4 -2 7 3 6 19 -4 30 0 55 21 14 11 19 17 11 13
-9 -4 -12 -3 -7 4 4 6 13 9 20 6 7 -3 19 3 27 12 12 15 12 17 0 9 -9 -5 -12
-4 -7 3 4 6 12 9 20 6 7 -3 31 13 54 34 23 22 42 38 42 36 0 -2 11 6 25 18 13
11 21 26 18 32 -3 6 -3 8 2 4 11 -11 67 31 59 44 -4 6 -3 8 3 5 13 -8 56 37
46 48 -5 4 -3 5 3 2 6 -4 20 3 30 16 19 21 19 21 -1 7 -18 -14 -19 -14 -6 2 7
10 17 16 21 13 11 -7 41 30 33 40 -5 4 -3 5 4 1 12 -6 40 31 35 46 -1 5 4 7
11 5 6 -1 11 4 9 11 -1 8 2 11 7 7 12 -7 33 29 23 40 -4 5 -2 5 4 2 14 -8 66
57 56 68 -4 5 -2 5 5 1 7 -4 17 2 23 14 6 11 7 20 3 20 -4 0 0 6 8 13 31 25
70 87 63 100 -4 6 -4 9 1 5 12 -11 38 29 29 45 -4 6 -4 9 1 5 11 -11 58 60 49
74 -4 6 -3 8 3 5 13 -8 26 20 16 35 -3 6 -1 8 4 5 12 -8 26 20 17 34 -3 5 0 8
8 7 8 -2 13 6 12 19 0 12 3 20 7 18 10 -7 20 25 12 37 -3 6 -1 8 5 4 13 -8 26
29 16 45 -4 7 -3 9 3 6 14 -9 37 48 27 64 -5 8 -3 9 6 4 10 -6 12 -4 7 9 -4
10 -3 15 3 11 9 -6 11 -1 14 38 1 6 5 15 10 18 5 4 9 20 10 37 0 17 4 28 8 26
9 -6 21 34 13 46 -3 5 -1 10 6 10 6 0 9 8 6 20 -3 13 -1 18 6 13 6 -4 8 2 5
15 -3 12 -2 22 3 24 4 2 10 19 11 38 2 19 6 37 10 40 4 3 9 21 11 41 2 19 6
39 9 44 11 18 13 60 4 74 -7 10 -5 12 3 6 9 -5 12 1 10 21 -1 16 2 37 6 47 4
9 5 29 3 42 -3 14 -1 25 4 25 5 0 4 10 -3 21 -8 16 -8 20 1 14 8 -5 11 4 10
31 -1 22 -1 44 0 49 1 6 1 15 0 20 -8 38 -8 45 1 40 5 -4 9 -2 9 4 0 5 -5 13
-10 16 -7 4 -7 13 0 24 6 12 5 22 -3 31 -9 10 -9 11 1 6 15 -9 16 6 0 22 -8 8
-9 12 -1 12 12 0 11 39 -1 58 -3 6 -2 13 4 17 6 4 8 9 6 13 -2 4 -7 41 -11 82
-3 41 -10 79 -15 84 -5 5 -6 14 -4 21 3 7 -4 64 -16 126 -12 63 -24 126 -27
141 -3 16 -10 25 -16 21 -5 -3 -7 -1 -4 4 9 15 -3 74 -14 67 -5 -3 -6 1 -3 9
6 17 -48 166 -106 297 -123 272 -293 514 -508 724 -194 189 -369 315 -601 431
-192 96 -426 179 -594 209 -50 9 -147 26 -171 30 -65 11 -390 28 -399 21z"/>
</g>
</svg>
